<?xml version="1.0" standalone="no"?>
<!DOCTYPE svg PUBLIC "-//W3C//DTD SVG 20010904//EN"
 "http://www.w3.org/TR/2001/REC-SVG-20010904/DTD/svg10.dtd">
<svg version="1.0" xmlns="http://www.w3.org/2000/svg"
 width="1000.000000pt" height="1000.000000pt" viewBox="0 0 1000.000000 1000.000000"
 preserveAspectRatio="xMidYMid meet">

<g transform="translate(0.000000,1000.000000) scale(0.100000,-0.100000)"
fill="#000000" stroke="none">
<path d="M4710 8989 c-1449 -115 -2697 -969 -3318 -2269 -195 -409 -310 -811
-369 -1290 -24 -202 -24 -657 0 -860 45 -370 128 -707 254 -1030 517 -1318
1701 -2269 3098 -2489 233 -36 365 -46 625 -46 511 0 959 82 1430 262 963 368
1738 1087 2184 2025 602 1266 491 2767 -292 3933 -481 716 -1156 1242 -1975
1539 -503 183 -1114 266 -1637 225z m110 -2372 c239 -1 608 0 820 3 354 5 388
4 420 -13 64 -31 108 -76 141 -142 29 -60 31 -70 27 -143 -5 -89 -25 -131
-145 -315 -133 -202 -270 -374 -1122 -1407 -161 -195 -302 -368 -313 -384
l-21 -29 700 4 699 4 40 -26 c101 -67 148 -150 146 -261 -2 -103 -63 -200
-159 -248 -47 -24 -56 -25 -348 -31 -434 -10 -1384 -10 -1567 0 -144 8 -161
11 -208 37 -99 54 -144 131 -144 249 -1 104 15 136 127 268 48 56 149 184 225
284 75 99 250 310 389 469 317 364 470 546 638 754 133 166 254 328 255 343 0
4 -233 7 -517 7 -574 1 -808 10 -886 36 -73 24 -150 103 -171 174 -32 108 -11
213 56 286 83 90 134 104 347 91 75 -4 332 -9 571 -10z"/>
</g>
</svg>
